<svg xmlns="http://www.w3.org/2000/svg" width="21" height="21" viewBox="0 0 21 21"><g><g><path fill="#00beb4" d="M18.391 15.674c.428.428.653.93.653 1.459 0 .523-.22 1.03-.64 1.47-.182.19-.369.372-.55.548-.268.258-.522.5-.742.769-.004.008-.013.012-.017.022-.644.7-1.466 1.053-2.445 1.053-.085 0-.178-.007-.267-.01-1.454-.093-2.754-.642-3.729-1.103a19.945 19.945 0 0 1-6.64-5.215c-1.53-1.842-2.555-3.562-3.242-5.42C.492 8.493.128 7.335.23 6.094a3.116 3.116 0 0 1 .92-1.974l1.44-1.457.009-.008c.423-.41.923-.626 1.44-.626.517 0 1.009.217 1.42.626.275.254.542.526.797.79.127.134.262.272.394.404l1.156 1.16c.89.891.89 2.047 0 2.94-.118.117-.237.24-.356.358-.313.322-.635.652-.983.97.259.573.615 1.139 1.144 1.81 1.094 1.349 2.234 2.387 3.488 3.186.123.076.267.15.42.227.105.056.216.111.326.168l1.339-1.338c.428-.43.928-.653 1.449-.653.525 0 1.021.228 1.432.658zm-.813.804l-2.335-2.342-.008-.008c-.132-.143-.348-.31-.61-.31-.268 0-.496.175-.64.318l-1.45 1.454c-.072.073-.292.293-.644.293a.91.91 0 0 1-.42-.108c-.016-.008-.033-.02-.05-.028a4.905 4.905 0 0 0-.42-.224c-.17-.085-.347-.174-.52-.285-1.361-.863-2.594-1.988-3.764-3.433l-.004-.006c-.644-.818-1.068-1.508-1.369-2.237l-.012-.038c-.076-.244-.144-.601.22-.966.004-.008.013-.01.021-.019.369-.333.708-.674 1.064-1.038.123-.118.241-.241.364-.365.45-.45.45-.867 0-1.317l-1.157-1.16c-.135-.14-.27-.277-.402-.412a20.367 20.367 0 0 0-.775-.773c-.136-.135-.352-.297-.62-.297-.215 0-.436.106-.643.3L1.959 4.926a1.95 1.95 0 0 0-.585 1.262c-.063.778.08 1.603.475 2.66.64 1.733 1.606 3.346 3.05 5.095a18.844 18.844 0 0 0 6.255 4.91c.877.422 2.047.915 3.305.995.064.004.132.004.195.004.661 0 1.165-.218 1.593-.676.263-.31.543-.586.818-.85.182-.178.351-.34.516-.517-.003.003-.003-.001.001-.001.432-.452.432-.896-.004-1.33zm.004 1.33zM10.586 4.989a.575.575 0 0 1 .661-.466 6.518 6.518 0 0 1 3.538 1.84c.97.971 1.606 2.2 1.835 3.546a.573.573 0 0 1-.47.663c-.034.005-.064.01-.098.01a.57.57 0 0 1-.563-.476 5.415 5.415 0 0 0-1.517-2.932 5.383 5.383 0 0 0-2.924-1.522.567.567 0 0 1-.462-.663zm9.2 5.41c-.034.003-.064.008-.098.008a.569.569 0 0 1-.564-.477 9.633 9.633 0 0 0-2.699-5.22 9.602 9.602 0 0 0-5.208-2.706.576.576 0 0 1-.47-.664.572.572 0 0 1 .657-.468 10.75 10.75 0 0 1 5.826 3.031 10.788 10.788 0 0 1 3.022 5.84.563.563 0 0 1-.466.656z"/></g></g></svg>