<svg xmlns="http://www.w3.org/2000/svg" width="143" height="161"><defs><filter id="7623a" width="183" height="231" x="-20" y="-45" filterUnits="userSpaceOnUse"><feOffset dy="25" in="SourceGraphic" result="FeOffset1023Out"/><feGaussianBlur in="FeOffset1023Out" result="FeGaussianBlur1024Out" stdDeviation="20 20"/></filter><mask id="7623b" width="2" height="2" x="-1" y="-1"><path fill="#fff" d="M40 15h63v86H40z"/><path d="M71.489 15.879c-17.055 0-30.93 13.711-30.93 30.563 0 20.915 27.68 51.614 28.858 52.913a2.806 2.806 0 004.144 0c1.178-1.299 28.857-31.998 28.857-52.913 0-16.852-13.875-30.563-30.93-30.563z"/></mask></defs><g filter="url(#7623a)"><path fill="none" d="M71.489 15.879c-17.055 0-30.93 13.711-30.93 30.563 0 20.915 27.68 51.614 28.858 52.913a2.806 2.806 0 004.144 0c1.178-1.299 28.857-31.998 28.857-52.913 0-16.852-13.875-30.563-30.93-30.563z" mask="url(&quot;#7623b&quot;)"/><path fill="#cc7025" fill-opacity=".25" d="M71.489 15.879c-17.055 0-30.93 13.711-30.93 30.563 0 20.915 27.68 51.614 28.858 52.913a2.806 2.806 0 004.144 0c1.178-1.299 28.857-31.998 28.857-52.913 0-16.852-13.875-30.563-30.93-30.563z"/></g><path fill="#ff9a47" d="M71.489 15.879c-17.055 0-30.93 13.711-30.93 30.563 0 20.915 27.68 51.614 28.858 52.913a2.806 2.806 0 004.144 0c1.178-1.299 28.857-31.998 28.857-52.913 0-16.852-13.875-30.563-30.93-30.563z"/><path fill="#fff" d="M79.82 61.463H62.823c-2.19 0-3.85-1.742-3.85-3.89V39.397c0-2.213 1.726-3.957 3.85-3.957h16.999c2.19 0 3.85 1.744 3.85 3.89v18.241c0 2.214-1.726 3.891-3.85 3.891zM72.186 48.05c-.067-.401-.399-.669-.664-.669h-.067c-.265 0-.464.133-.664.401l-2.988 4.627-2.921-4.627c-.133-.201-.399-.401-.664-.401h-.067c-.398 0-.664.268-.664.67v8.182c0 .467.399.737.73.737.4 0 .731-.403.731-.737v-5.7l2.457 3.754c.2.403.73.403.93 0l2.39-3.822v5.7c0 .47.398.737.73.737.399 0 .73-.401.73-.737zm2.324 2.75c-.399.402-.598.67-.797 1.073-.2.469-.399 1.006-.399 1.61 0 .468.133.94.266 1.41.133.468.398.804.73 1.072.399.268.73.602 1.13.735.398.137.995.27 1.527.27.664 0 1.327-.068 1.991-.201.266-.069.465-.403.465-.671V48.05c.067-.336-.199-.669-.664-.669-.398 0-.73.268-.73.737v2.01a1.582 1.582 0 00-.598-.133h-.464c-.465 0-.864.134-1.328.2-.465.133-.797.403-1.13.604zm5.776-9.66h-.796v-.735c0-.401-.266-.67-.664-.67h-.133c-.399 0-.664.269-.664.67v.736h-.797c-.398 0-.664.27-.664.672s.266.67.664.67h.797v.806c0 .403.265.669.664.669h.2c.397 0 .663-.266.663-.67v-.873h.797c.398 0 .664-.266.664-.669a.78.78 0 00-.73-.605zM77.43 51.27c.133 0 .399.067.465.135v4.089l.133.068a1.612 1.612 0 01-.598.135h-.53c-.73 0-1.195-.203-1.593-.604-.399-.403-.598-.939-.598-1.61 0-.738.2-1.208.598-1.677.464-.401.996-.604 1.66-.604.132 0 .398 0 .464.068z"/></svg>