<svg xmlns="http://www.w3.org/2000/svg" width="30" height="36"><path fill="#e52629" d="M23.644 23.75a12.444 12.444 0 003.65-8.812c0-6.873-5.583-12.467-12.443-12.467-6.859 0-12.439 5.594-12.439 12.467 0 3.428 1.394 6.553 3.627 8.788.224.225.37.534.37.875 0 .67-.54 1.208-1.207 1.208a1.2 1.2 0 01-.866-.361A14.849 14.849 0 010 14.938C0 6.718 6.65.053 14.855.053c8.203 0 14.854 6.664 14.854 14.885 0 4.106-1.663 7.824-4.346 10.521L14.848 35.996l-1.712-1.717zm-5.557-5.874l-.836-2.402-2.403 3.96-2.4-3.96-.836 2.402h.86v1.447h-5.74v-1.447h1.114l3.802-9.63 3.2 5.62 3.203-5.62 3.8 9.63h1.116v1.447h-5.74v-1.447z"/></svg>