<svg xmlns="http://www.w3.org/2000/svg" width="19" height="12"><path d="M18.877 6.012a.637.637 0 00-.186-.455L13.503.347a.637.637 0 00-.902 0l-.382.384a.647.647 0 000 .908l4.357 4.373-4.362 4.38a.63.63 0 00-.186.451c0 .173.066.331.186.452l.382.385c.12.12.28.186.451.186a.63.63 0 00.451-.186l5.193-5.214a.636.636 0 00.186-.454zm-6.186-.455L7.503.347a.637.637 0 00-.902 0l-.382.384a.646.646 0 000 .908l4.357 4.373-4.362 4.38a.63.63 0 00-.186.451c0 .173.066.331.186.452l.382.385c.12.12.28.186.451.186a.63.63 0 00.451-.186l5.193-5.214a.636.636 0 00.186-.454.637.637 0 00-.186-.455zm-6 0L1.503.347a.637.637 0 00-.902 0L.219.731a.646.646 0 000 .908l4.357 4.373-4.362 4.38a.63.63 0 00-.186.451c0 .173.066.331.186.452l.382.385c.12.12.28.186.451.186a.63.63 0 00.451-.186l5.193-5.214a.636.636 0 00.186-.454.637.637 0 00-.186-.455z"/></svg>