<svg xmlns="http://www.w3.org/2000/svg" width="36" height="35"><path fill="#00beb4" d="M35.655 25.488a9.61 9.61 0 01-4.528 5.882l-3.412 1.958a9.714 9.714 0 01-7.393.962L4.181 29.965a2.656 2.656 0 01-1.883-3.244c.504-1.882 2.346-3.12 4.285-2.885l7.202.772L5.24 9.882a3.365 3.365 0 011.233-4.606 3.405 3.405 0 014.637 1.232l2.224 3.833a3.32 3.32 0 011.19-1.154 3.407 3.407 0 014.385.856c.286-.475.693-.89 1.208-1.186a3.405 3.405 0 014.386.86c.282-.48.69-.89 1.206-1.19a3.405 3.405 0 014.637 1.234l4.55 8.766a9.661 9.661 0 01.759 6.96zm-1.712-.462a7.899 7.899 0 00-.62-5.689l-4.53-8.732c-.427-.728-1.412-.993-2.183-.555a1.605 1.605 0 00-.6 2.202l.054.094a.88.88 0 01-.323 1.204.888.888 0 01-1.197-.3l-.001-.002-.002-.004-.001-.001-.002-.002v-.001l-.002-.003-1.315-2.268a1.62 1.62 0 00-2.204-.588 1.604 1.604 0 00-.6 2.2l1.309 2.257a.883.883 0 01-.322 1.207.89.89 0 01-1.21-.324l-2.566-4.422a1.623 1.623 0 00-2.203-.591 1.605 1.605 0 00-.6 2.2l2.563 4.42a.878.878 0 01-.321 1.207.887.887 0 01-1.21-.323L9.576 7.389a1.617 1.617 0 00-2.205-.591A1.608 1.608 0 006.772 9l9.418 16.23a.885.885 0 01-.023.923.892.892 0 01-.836.395l-8.945-.957a2.186 2.186 0 00-2.376 1.587.885.885 0 00.627 1.083l16.142 4.323a7.937 7.937 0 006.049-.785l3.411-1.96a7.855 7.855 0 003.704-4.813zM15.303 7.943a.882.882 0 01-1.017-.728 6.216 6.216 0 00-4.51-4.98c-3.304-.885-6.708 1.07-7.59 4.358-.624 2.333.193 4.836 2.08 6.377.378.31.435.866.126 1.245a.89.89 0 01-1.247.12C.72 12.353-.33 9.136.475 6.135 1.607 1.905 5.984-.61 10.232.53a7.99 7.99 0 015.8 6.4.879.879 0 01-.73 1.013z"/></svg>